#!OML:ASF E:/inclinewalkrobotboard/Project1/Captureday1/Session1/subject1.ASF
:FULLY-SPECIFIED
:DEGREES
113
root 0 0 0 -9.741606256384705 -48.11511638506563 -1.0932869576905129
lowerback 0.9232315766256711 -1.3234886293182062 0.3477393042677126
upperback -2.5794756551645297 -1.5655602860289703 0.4924132451854487
thorax -3.1182611535260767 -0.7716774435373672 0.6284235335620556
lowerneck -16.627017141251546 -1.9897970415392594 -7.599104250451736
upperneck 0.09850546268894256 -2.4991205395812868 6.922444666723882
head 3.2183336498105213 -0.9601344307636934 3.2107503778921638
rclavicle -1.0092028607725154E-14 -1.8559895510538614E-16
rhumerus 2.606844793916084 -12.750868075562165 -67.5076610823569
rradius 18.59537419395283
rwrist 57.79206755987397
rhand -7.479880099038544 21.849661905857438
rfingers 7.1250199999999095
rthumb 18.418394736280295 -7.847437815444501
lclavicle -5.825716080459775E-15 5.7601732863299636E-15
lhumerus -27.179610554877165 -0.3109816485374566 80.8923267947408
lradius 33.53561322706396
lwrist -39.96947491315326
lhand -9.87634456805922 14.395267850043538
lfingers 7.031281581219164
lthumb 15.751618387715657 69.52085940939358
rfemur -0.4304539509113603 7.934009256052066 35.8300358506752
rtibia 24.16396469738819
rfoot -16.123480032328004 -5.224709501772639
rtoes 11.874342368703166
lfemur 16.013058658450774 -3.291730939666645 -29.805982849187764
ltibia 17.4141206184541
lfoot -16.19862898614681 -2.9925412802604505
ltoes -8.162139559657358
114
root 0 0 0 -9.764029940012994 -47.70947128322675 -1.1388575658140745
lowerback 0.8285009931844058 -1.321942093916129 0.3811298301629491
upperback -2.597356946355539 -1.5557101125836388 0.4859199977122205
thorax -3.0864974563431145 -0.766486099569206 0.603796738765245
lowerneck -16.59054384932857 -1.9807519668445233 -7.570850954905594
upperneck 0.07850744680902721 -2.4860620752719953 6.8297389692978445
head 3.2086094666352025 -0.9541955199691282 3.1766360013557504
rclavicle -1.0124116428685164E-14 -1.7497387477321778E-16
rhumerus 2.5925724592823194 -12.727919257840766 -67.52611574657199
rradius 18.57330902299777
rwrist 57.82100663655122
rhand -7.48154638620092 21.853550718913496
rfingers 7.12501999999991
rthumb 18.41695794130459 -7.844005888462526
lclavicle -5.960284793214015E-15 5.685208325235116E-15
lhumerus -27.38434814392845 -0.3356280796029587 80.99053523020184
lradius 33.11303661168791
lwrist -40.078400073017505
lhand -9.826931535582743 14.40992187688012
lfingers 7.0322801483419735
lthumb 15.802966589137855 68.52844050031182
rfemur -0.26271460470345787 7.918915680844073 35.86915501400396
rtibia 24.236787009438828
rfoot -16.003333958732625 -5.150232785373419
rtoes 11.823462445667621
lfemur 16.60689271871059 -3.415011033883598 -29.62044892605813
ltibia 17.41300721585279
lfoot -15.476994747720568 -3.5831423944758445
ltoes -9.128702863066238
115
root 0 0 0 -9.768043956335314 -46.88332471111899 -1.2031177675141578
lowerback 0.6708581176577457 -1.3242411251660493 0.4402452064945628
upperback -2.6216354416089387 -1.5447788058397447 0.4788949224294897
thorax -3.028334230128253 -0.7604937236737337 0.5654623474252181
lowerneck -16.506894091065455 -1.9509712803680006 -7.519788345548861
upperneck 0.06520571155494537 -2.444095474100589 6.6425087194156145
head 3.193416886929309 -0.9345197314944239 3.109219792703109
rclavicle -1.0183720641468322E-14 -1.4884658110987673E-16
rhumerus 2.5505710129766 -12.67717155331295 -67.57193054988932
rradius 18.543586609870026
rwrist 57.86392375248617
rhand -7.483941133166553 21.854696161693848
rfingers 7.12501999999991
rthumb 18.414920378222472 -7.8432689794139705
lclavicle -6.242733222538145E-15 5.598408599665544E-15
lhumerus -27.69398464825337 -0.35860270366341496 81.12539000229776
lradius 32.52339084806697
lwrist -40.212898493648
lhand -9.735417476976265 14.432079983808318
lfingers 7.033816683736496
lthumb 15.897011676915492 67.07992255637193
rfemur -0.1815641590903745 7.891159673001833 35.88138425750949
rtibia 24.3851279377081
rfoot -15.716020339032308 -5.050425521189734
rtoes 11.92855762924878
lfemur 17.542203016962404 -3.6308539074040898 -29.257953334807752
ltibia 17.529705409424846
lfoot -14.146869222905627 -4.622970279849261
ltoes -10.759018203551193
116
root 0 0 0 -9.7772957513292 -46.279973978713585 -1.2516497507482316
lowerback 0.5739450749420065 -1.3262298526611769 0.4801187427892457
upperback -2.635103427433448 -1.5384380855760775 0.47296014300941736
thorax -2.9912663288454153 -0.75696394571326 0.5380269436725486
lowerneck -16.444396843587363 -1.9366140447972313 -7.482384630748103
upperneck 0.04832665292284055 -2.4233435038631352 6.524019768943183
head 3.1799904671287966 -0.9251865298285817 3.065703401378933
rclavicle -1.0237788099648436E-14 -1.4140366650485559E-16
rhumerus 2.5346317888183374 -12.645592004679413 -67.6006683385942
rradius 18.532050386028807
rwrist 57.889260619994644
rhand -7.487029105190333 21.855387851416697
rfingers 7.12501999999991
rthumb 18.412093271730548 -7.842826272342386
lclavicle -6.478431082731634E-15 5.457066259401039E-15
lhumerus -27.949990823016442 -0.3962355035354683 81.22584514520219
lradius 32.03527027195717
lwrist -40.300908156458505
lhand -9.599311070291895 14.457603540615874
lfingers 7.034645148166648
lthumb 16.030876038227376 65.8380185006629
rfemur -0.17648969581545515 7.869073109297877 35.87225164252598
rtibia 24.493407321887798
rfoot -15.467621508793508 -4.977650336972556
rtoes 12.039108866793486
lfemur 18.183023617861977 -3.7903354532837 -28.94940553173017
ltibia 17.735847180701082
lfoot -13.07686419418037 -5.429437800288746
ltoes -11.967845104465034
117
root 0 0 0 -9.778378364543586 -45.536418108327915 -1.2977852690188627
lowerback 0.46583916188927965 -1.3300598471315253 0.5260475305650485
upperback -2.6479218372269107 -1.533089018921736 0.4676732261850526
thorax -2.9477091586162096 -0.7538246774544888 0.5081690600434724
lowerneck -16.362662862951662 -1.9148708299338169 -7.439176791717272
upperneck 0.03644566762601542 -2.3924180991382205 6.379650273273903
head 3.1644377810309923 -0.9110231171454563 3.0132377256743834
rclavicle -1.0300295867281702E-14 -1.2584405211094376E-16
rhumerus 2.510236431282255 -12.602775852352314 -67.6355160602306
rradius 18.519432865789867
rwrist 57.91448252863215
rhand -7.489605129006584 21.85274418288181
rfingers 7.12501999999991
rthumb 18.409769665867806 -7.845628548298201
lclavicle -6.7827887395625034E-15 5.3245072817175166E-15
lhumerus -28.231353234900446 -0.4197808831124412 81.32502563117981
lradius 31.52668390046385
lwrist -40.38338081443875
lhand -9.441600436066448 14.486272846681935
lfingers 7.035627950016709
lthumb 16.18620314757225 64.48610407350853
rfemur -0.2339508344255954 7.844700268539795 35.843894871722206
rtibia 24.62411158321341
rfoot -15.176501008870558 -4.908912014413991
rtoes 12.217888418052473
lfemur 18.81173103608812 -3.946080729705926 -28.595820833162428
ltibia 18.088008959909228
lfoot -11.893974909159551 -6.307472404442354
ltoes -13.233091505328492
